<?xml version="1.0" encoding="UTF-8" standalone="no"?>
<!DOCTYPE svg PUBLIC "-//W3C//DTD SVG 1.1//EN"
 "http://www.w3.org/Graphics/SVG/1.1/DTD/svg11.dtd">
<!-- Generated by graphviz version 2.38.0 (20140413.2041)
 -->
<!-- Title: %3 Pages: 1 -->
<svg width="272pt" height="496pt"
 viewBox="0.00 0.00 272.39 496.00" xmlns="http://www.w3.org/2000/svg" xmlns:xlink="http://www.w3.org/1999/xlink">
<g id="graph0" class="graph" transform="scale(1 1) rotate(0) translate(4 492)">
<title>%3</title>
<polygon fill="white" stroke="none" points="-4,4 -4,-492 268.393,-492 268.393,4 -4,4"/>
<!-- provision -->
<g id="node1" class="node"><title>provision</title>
<ellipse fill="red" stroke="red" cx="152.393" cy="-470" rx="44.393" ry="18"/>
<text text-anchor="middle" x="152.393" y="-466.3" font-family="Times,serif" font-size="14.00">provision</text>
</g>
<!-- environment/install -->
<g id="node2" class="node"><title>environment/install</title>
<ellipse fill="red" stroke="red" cx="152.393" cy="-397" rx="79.0865" ry="18"/>
<text text-anchor="middle" x="152.393" y="-393.3" font-family="Times,serif" font-size="14.00">environment/install</text>
</g>
<!-- provision&#45;&gt;environment/install -->
<g id="edge1" class="edge"><title>provision&#45;&gt;environment/install</title>
<path fill="none" stroke="black" d="M152.393,-451.813C152.393,-443.789 152.393,-434.047 152.393,-425.069"/>
<polygon fill="black" stroke="black" points="155.893,-425.029 152.393,-415.029 148.893,-425.029 155.893,-425.029"/>
</g>
<!-- libvirt/setup -->
<g id="node3" class="node"><title>libvirt/setup</title>
<ellipse fill="lightgreen" stroke="lightgreen" cx="152.393" cy="-324" rx="53.0913" ry="18"/>
<text text-anchor="middle" x="152.393" y="-320.3" font-family="Times,serif" font-size="14.00">libvirt/setup</text>
</g>
<!-- environment/install&#45;&gt;libvirt/setup -->
<g id="edge2" class="edge"><title>environment/install&#45;&gt;libvirt/setup</title>
<path fill="none" stroke="black" d="M152.393,-378.813C152.393,-370.789 152.393,-361.047 152.393,-352.069"/>
<polygon fill="black" stroke="black" points="155.893,-352.029 152.393,-342.029 148.893,-352.029 155.893,-352.029"/>
</g>
<!-- tripleo/undercloud -->
<g id="node4" class="node"><title>tripleo/undercloud</title>
<ellipse fill="lightgreen" stroke="lightgreen" cx="75.3933" cy="-251" rx="75.2868" ry="18"/>
<text text-anchor="middle" x="75.3933" y="-247.3" font-family="Times,serif" font-size="14.00">tripleo/undercloud</text>
</g>
<!-- libvirt/setup&#45;&gt;tripleo/undercloud -->
<g id="edge3" class="edge"><title>libvirt/setup&#45;&gt;tripleo/undercloud</title>
<path fill="none" stroke="black" d="M134.921,-306.889C124.826,-297.581 111.95,-285.708 100.756,-275.387"/>
<polygon fill="black" stroke="black" points="103.055,-272.746 93.331,-268.54 98.3101,-277.892 103.055,-272.746"/>
</g>
<!-- tripleo/overcloud -->
<g id="node5" class="node"><title>tripleo/overcloud</title>
<ellipse fill="lightgreen" stroke="lightgreen" cx="78.3933" cy="-164" rx="71.4873" ry="18"/>
<text text-anchor="middle" x="78.3933" y="-160.3" font-family="Times,serif" font-size="14.00">tripleo/overcloud</text>
</g>
<!-- tripleo/undercloud&#45;&gt;tripleo/overcloud -->
<g id="edge4" class="edge"><title>tripleo/undercloud&#45;&gt;tripleo/overcloud</title>
<path fill="none" stroke="black" d="M76.0004,-232.799C76.4111,-221.163 76.9622,-205.548 77.432,-192.237"/>
<polygon fill="black" stroke="black" points="80.9321,-192.293 77.7871,-182.175 73.9365,-192.046 80.9321,-192.293"/>
</g>
<!-- libvirt/teardown -->
<g id="node6" class="node"><title>libvirt/teardown</title>
<ellipse fill="lightgreen" stroke="lightgreen" cx="147.393" cy="-91" rx="67.6881" ry="18"/>
<text text-anchor="middle" x="147.393" y="-87.3" font-family="Times,serif" font-size="14.00">libvirt/teardown</text>
</g>
<!-- tripleo/overcloud&#45;&gt;libvirt/teardown -->
<g id="edge5" class="edge"><title>tripleo/overcloud&#45;&gt;libvirt/teardown</title>
<path fill="none" stroke="black" d="M94.7453,-146.174C103.51,-137.155 114.46,-125.888 124.1,-115.968"/>
<polygon fill="black" stroke="black" points="126.699,-118.316 131.159,-108.705 121.679,-113.437 126.699,-118.316"/>
</g>
<!-- libvirt/teardown&#45;&gt;libvirt/setup -->
<g id="edge6" class="edge"><title>libvirt/teardown&#45;&gt;libvirt/setup</title>
<path fill="none" stroke="black" d="M151.806,-109.379C154.259,-119.9 157.075,-133.632 158.393,-146 160.563,-166.347 160.919,-245.366 159.393,-269 158.837,-277.623 157.785,-286.973 156.663,-295.431"/>
<polygon fill="black" stroke="black" points="153.167,-295.155 155.236,-305.546 160.099,-296.133 153.167,-295.155"/>
<text text-anchor="middle" x="211.893" y="-203.8" font-family="Times,serif" font-size="14.00">repeat as necessary</text>
</g>
<!-- environment/cleanup -->
<g id="node7" class="node"><title>environment/cleanup</title>
<ellipse fill="red" stroke="red" cx="147.393" cy="-18" rx="85.2851" ry="18"/>
<text text-anchor="middle" x="147.393" y="-14.3" font-family="Times,serif" font-size="14.00">environment/cleanup</text>
</g>
<!-- libvirt/teardown&#45;&gt;environment/cleanup -->
<g id="edge7" class="edge"><title>libvirt/teardown&#45;&gt;environment/cleanup</title>
<path fill="none" stroke="black" d="M147.393,-72.8129C147.393,-64.7895 147.393,-55.0475 147.393,-46.0691"/>
<polygon fill="black" stroke="black" points="150.893,-46.0288 147.393,-36.0288 143.893,-46.0289 150.893,-46.0288"/>
</g>
</g>
</svg>
